<svg width="344" height="75" viewBox="0 0 344 75" fill="none" xmlns="http://www.w3.org/2000/svg">
<g filter="url(#filter0_d_703_160)">
<rect x="4" y="18" width="336" height="51" rx="10" fill="white"/>
</g>
<rect x="58" y="40" width="192" height="6" rx="3" fill="#203850"/>
<path d="M42.5002 32H39.5002C39.4346 31.9992 39.3696 32.0122 39.3093 32.038C39.249 32.0638 39.1948 32.102 39.1502 32.15L29.6202 41.68C28.021 40.9484 26.2156 40.802 24.5194 41.2664C22.8233 41.7308 21.3442 42.7765 20.3408 44.2207C19.3373 45.6649 18.8733 47.4158 19.0298 49.1674C19.1862 50.919 19.9532 52.56 21.1967 53.8035C22.4402 55.047 24.0812 55.814 25.8328 55.9705C27.5844 56.1269 29.3353 55.6629 30.7795 54.6594C32.2237 53.656 33.2694 52.177 33.7338 50.4808C34.1982 48.7846 34.0518 46.9792 33.3202 45.38L35.6402 43.07L37.5702 43.72C37.7386 43.7808 37.9203 43.7952 38.0962 43.7618C38.2721 43.7284 38.4358 43.6483 38.5702 43.53C38.6995 43.4198 38.7986 43.2783 38.8581 43.1191C38.9176 42.9599 38.9355 42.7881 38.9102 42.62L38.5102 40.2L39.2302 39.47L40.6902 40.14C40.8601 40.2155 41.0477 40.2421 41.2319 40.2168C41.4161 40.1916 41.5896 40.1155 41.7329 39.9971C41.8763 39.8787 41.9838 39.7226 42.0433 39.5465C42.1029 39.3704 42.1122 39.1811 42.0702 39L41.5602 37.19L42.8502 35.89C42.9036 35.841 42.9449 35.7803 42.9709 35.7126C42.9969 35.645 43.0069 35.5722 43.0002 35.5V32.5C43.0002 32.3674 42.9475 32.2402 42.8537 32.1465C42.76 32.0527 42.6328 32 42.5002 32V32ZM26.0002 50.5C26.0002 50.7967 25.9122 51.0867 25.7474 51.3334C25.5826 51.5801 25.3483 51.7723 25.0742 51.8859C24.8001 51.9994 24.4985 52.0291 24.2075 51.9712C23.9166 51.9133 23.6493 51.7705 23.4395 51.5607C23.2297 51.3509 23.0869 51.0836 23.029 50.7927C22.9711 50.5017 23.0008 50.2001 23.1144 49.926C23.2279 49.6519 23.4201 49.4177 23.6668 49.2528C23.9135 49.088 24.2035 49 24.5002 49C24.898 49 25.2795 49.1581 25.5608 49.4394C25.8421 49.7207 26.0002 50.1022 26.0002 50.5V50.5Z" fill="#203850"/>
<path d="M14.256 2.3H13.032V11H18.852V9.944H14.256V2.3ZM20.1178 6.644C20.1178 4.4 21.3658 3.176 22.9498 3.176C24.5338 3.176 25.7818 4.4 25.7818 6.644C25.7818 8.888 24.5338 10.124 22.9498 10.124C21.3658 10.124 20.1178 8.888 20.1178 6.644ZM27.0298 6.644C27.0298 4.016 25.4578 2.144 22.9498 2.144C20.4418 2.144 18.8698 4.016 18.8698 6.644C18.8698 9.272 20.4418 11.156 22.9498 11.156C25.4578 11.156 27.0298 9.272 27.0298 6.644ZM32.4177 2.144C29.9697 2.144 28.3737 3.944 28.3737 6.632C28.3737 9.272 29.8137 11.156 32.3097 11.156C33.4737 11.156 34.4937 10.808 35.0577 9.908L35.1177 11H36.0777V6.56H32.6217V7.616H34.9257V7.844C34.9257 9.644 33.5097 10.124 32.3577 10.124C30.7617 10.124 29.6217 8.84 29.6217 6.632C29.6217 4.376 30.8217 3.176 32.3577 3.176C33.7497 3.176 34.5417 3.86 34.8297 4.832H36.0177C35.6577 3.152 34.2177 2.144 32.4177 2.144ZM39.2521 2.3H38.0281V11H39.2521V2.3ZM48.3171 11V2.3H47.0931V9.704L43.1211 2.3H41.3211V11H42.5451V3.572L46.5291 11H48.3171ZM53.2873 11L56.7193 2.3H55.6153L52.1953 11H53.2873ZM65.9024 11H67.2704L65.2544 7.136C66.3224 6.848 66.9824 6.188 66.9824 4.808C66.9824 2.72 65.4704 2.3 63.3584 2.3H60.5984V11H61.8224V7.34H63.3584C63.5864 7.34 63.7904 7.34 64.0184 7.328L65.9024 11ZM63.4544 3.332C64.7384 3.332 65.7224 3.488 65.7224 4.832C65.7224 6.176 64.7384 6.308 63.4544 6.308H61.8224V3.332H63.4544ZM68.7429 11H74.6469V9.944H69.9669V7.052H74.3709V5.996H69.9669V3.356H74.6469V2.3H68.7429V11ZM79.7263 2.144C77.2783 2.144 75.6823 3.944 75.6823 6.632C75.6823 9.272 77.1223 11.156 79.6183 11.156C80.7823 11.156 81.8023 10.808 82.3663 9.908L82.4263 11H83.3863V6.56H79.9303V7.616H82.2343V7.844C82.2343 9.644 80.8183 10.124 79.6663 10.124C78.0703 10.124 76.9303 8.84 76.9303 6.632C76.9303 4.376 78.1303 3.176 79.6663 3.176C81.0583 3.176 81.8503 3.86 82.1383 4.832H83.3263C82.9663 3.152 81.5263 2.144 79.7263 2.144ZM86.5607 2.3H85.3367V11H86.5607V2.3ZM88.2697 4.52C88.2697 5.96 89.4577 6.632 90.6577 6.896L91.7377 7.124C92.8177 7.376 93.6097 7.736 93.6097 8.66C93.6097 9.524 92.8777 10.124 91.5817 10.124C90.2377 10.124 89.4097 9.5 89.1817 8.3H87.9817C88.2097 10.028 89.5057 11.156 91.5577 11.156C93.2857 11.156 94.8697 10.244 94.8697 8.552C94.8697 6.8 93.2737 6.296 91.9417 6.008L90.9337 5.78C90.1177 5.6 89.5177 5.216 89.5177 4.448C89.5177 3.476 90.6937 3.176 91.3657 3.176C92.2297 3.176 93.2377 3.524 93.5257 4.52H94.7137C94.3657 2.852 92.9857 2.144 91.4137 2.144C90.0097 2.144 88.2697 2.852 88.2697 4.52ZM98 11H99.224V3.356H102.056V2.3H95.168V3.356H98V11ZM103.091 11H108.995V9.944H104.315V7.052H108.719V5.996H104.315V3.356H108.995V2.3H103.091V11ZM115.754 11H117.122L115.106 7.136C116.174 6.848 116.834 6.188 116.834 4.808C116.834 2.72 115.322 2.3 113.21 2.3H110.45V11H111.674V7.34H113.21C113.438 7.34 113.642 7.34 113.87 7.328L115.754 11ZM113.306 3.332C114.59 3.332 115.574 3.488 115.574 4.832C115.574 6.176 114.59 6.308 113.306 6.308H111.674V3.332H113.306Z" fill="white"/>
<defs>
<filter id="filter0_d_703_160" x="0" y="16" width="344" height="59" filterUnits="userSpaceOnUse" color-interpolation-filters="sRGB">
<feFlood flood-opacity="0" result="BackgroundImageFix"/>
<feColorMatrix in="SourceAlpha" type="matrix" values="0 0 0 0 0 0 0 0 0 0 0 0 0 0 0 0 0 0 127 0" result="hardAlpha"/>
<feOffset dy="2"/>
<feGaussianBlur stdDeviation="2"/>
<feComposite in2="hardAlpha" operator="out"/>
<feColorMatrix type="matrix" values="0 0 0 0 0 0 0 0 0 0 0 0 0 0 0 0 0 0 0.15 0"/>
<feBlend mode="normal" in2="BackgroundImageFix" result="effect1_dropShadow_703_160"/>
<feBlend mode="normal" in="SourceGraphic" in2="effect1_dropShadow_703_160" result="shape"/>
</filter>
</defs>
</svg>
