<svg width="344" height="155" viewBox="0 0 344 155" fill="none" xmlns="http://www.w3.org/2000/svg">
<rect x="5" y="1" width="334" height="97" rx="9" fill="white" fill-opacity="0.2" stroke="white" stroke-width="2" stroke-dasharray="4 4"/>
<g filter="url(#filter0_d_702_104)">
<rect x="4" y="108" width="336" height="41" rx="10" fill="white"/>
</g>
<rect x="11" y="115" width="77" height="28" rx="6" fill="#FA8E1D" fill-opacity="0.63"/>
<g clip-path="url(#clip0_702_104)">
<path d="M157 35.75C157 35.5511 157.079 35.3603 157.22 35.2197C157.36 35.079 157.551 35 157.75 35H164.605C164.746 34.9997 164.883 35.039 165.003 35.1132C165.122 35.1875 165.218 35.2938 165.28 35.42L166.495 37.85C166.745 38.347 167.129 38.7646 167.603 39.056C168.078 39.3474 168.623 39.5011 169.18 39.5H182.5C182.699 39.5 182.89 39.579 183.03 39.7197C183.171 39.8603 183.25 40.0511 183.25 40.25V46.37C183.248 46.4499 183.274 46.5279 183.323 46.5909C183.372 46.6538 183.442 46.6977 183.52 46.715C184.274 46.9347 185.007 47.2208 185.71 47.57C185.765 47.6017 185.827 47.6184 185.891 47.6182C185.954 47.6181 186.017 47.6012 186.071 47.5692C186.126 47.5372 186.172 47.4913 186.203 47.4361C186.234 47.381 186.251 47.3185 186.25 47.255V39.5C186.25 38.7044 185.934 37.9413 185.371 37.3787C184.809 36.8161 184.046 36.5 183.25 36.5H169.645C169.51 36.4948 169.378 36.453 169.265 36.3791C169.151 36.3051 169.06 36.2018 169 36.08L167.755 33.65C167.505 33.153 167.121 32.7354 166.647 32.444C166.172 32.1527 165.627 31.9989 165.07 32H157C156.204 32 155.441 32.3161 154.879 32.8787C154.316 33.4413 154 34.2044 154 35V56.75C154 57.5457 154.316 58.3087 154.879 58.8713C155.441 59.4339 156.204 59.75 157 59.75H167.95C168.001 59.7523 168.052 59.7437 168.1 59.7247C168.147 59.7057 168.19 59.6768 168.226 59.6399C168.261 59.603 168.288 59.5589 168.306 59.5107C168.323 59.4624 168.329 59.411 168.325 59.36C168.325 58.76 168.325 57.74 168.325 57.14C168.329 57.089 168.323 57.0376 168.306 56.9894C168.288 56.9411 168.261 56.897 168.226 56.8601C168.19 56.8232 168.147 56.7943 168.1 56.7753C168.052 56.7563 168.001 56.7477 167.95 56.75H157.75C157.551 56.75 157.36 56.671 157.22 56.5303C157.079 56.3897 157 56.1989 157 56V35.75Z" fill="white"/>
<path d="M180.25 48.5C178.322 48.5 176.437 49.0718 174.833 50.1432C173.23 51.2145 171.98 52.7373 171.242 54.5188C170.504 56.3004 170.311 58.2608 170.687 60.1521C171.064 62.0434 171.992 63.7807 173.356 65.1443C174.719 66.5079 176.457 67.4365 178.348 67.8127C180.239 68.1889 182.2 67.9958 183.981 67.2578C185.763 66.5199 187.285 65.2702 188.357 63.6668C189.428 62.0634 190 60.1784 190 58.25C189.996 55.6654 188.968 53.1877 187.14 51.3601C185.312 49.5325 182.835 48.504 180.25 48.5V48.5ZM183.835 57.035C183.922 57.1463 183.976 57.2795 183.992 57.4198C184.008 57.5601 183.985 57.7021 183.925 57.83C183.863 57.9562 183.767 58.0625 183.648 58.1368C183.528 58.2111 183.391 58.2503 183.25 58.25H182.125C182.026 58.25 181.93 58.2895 181.86 58.3598C181.79 58.4302 181.75 58.5255 181.75 58.625V62.75C181.75 63.1478 181.592 63.5294 181.311 63.8107C181.029 64.092 180.648 64.25 180.25 64.25C179.852 64.25 179.471 64.092 179.189 63.8107C178.908 63.5294 178.75 63.1478 178.75 62.75V58.625C178.75 58.5255 178.71 58.4302 178.64 58.3598C178.57 58.2895 178.474 58.25 178.375 58.25H177.25C177.109 58.2503 176.972 58.2111 176.852 58.1368C176.733 58.0625 176.637 57.9562 176.575 57.83C176.515 57.7021 176.492 57.5601 176.508 57.4198C176.524 57.2795 176.578 57.1463 176.665 57.035L179.665 53.285C179.737 53.1998 179.826 53.1313 179.927 53.0843C180.028 53.0373 180.139 53.013 180.25 53.013C180.361 53.013 180.472 53.0373 180.573 53.0843C180.674 53.1313 180.763 53.1998 180.835 53.285L183.835 57.035Z" fill="white"/>
</g>
<defs>
<filter id="filter0_d_702_104" x="0" y="106" width="344" height="49" filterUnits="userSpaceOnUse" color-interpolation-filters="sRGB">
<feFlood flood-opacity="0" result="BackgroundImageFix"/>
<feColorMatrix in="SourceAlpha" type="matrix" values="0 0 0 0 0 0 0 0 0 0 0 0 0 0 0 0 0 0 127 0" result="hardAlpha"/>
<feOffset dy="2"/>
<feGaussianBlur stdDeviation="2"/>
<feComposite in2="hardAlpha" operator="out"/>
<feColorMatrix type="matrix" values="0 0 0 0 0 0 0 0 0 0 0 0 0 0 0 0 0 0 0.15 0"/>
<feBlend mode="normal" in2="BackgroundImageFix" result="effect1_dropShadow_702_104"/>
<feBlend mode="normal" in="SourceGraphic" in2="effect1_dropShadow_702_104" result="shape"/>
</filter>
<clipPath id="clip0_702_104">
<rect width="36" height="36" fill="white" transform="translate(154 32)"/>
</clipPath>
</defs>
</svg>
