<svg width="260" height="47" viewBox="0 0 173 47" fill="none" xmlns="http://www.w3.org/2000/svg">
<g clip-path="url(#clip0_433_1827)">
<path d="M43.0411 7.49399H39.9541L37.5391 19.254L35.1031 7.49399H32.2051L35.7751 22.719H38.9671L41.4871 11.043L44.0491 22.719H47.1991L50.7481 7.49399H47.9551L45.6451 19.275L43.0411 7.49399ZM62.1081 17.784C62.3391 14.004 60.1551 11.169 56.6901 11.169C53.4771 11.169 51.1461 13.584 51.1461 16.986C51.1461 20.241 53.2251 22.992 56.8581 22.992C59.7561 22.992 61.4781 21.144 61.9821 19.338H59.5251C59.0841 20.409 58.0761 20.913 56.7531 20.913C55.3251 20.913 53.8551 19.884 53.6871 17.784H62.1081ZM56.6901 13.122C58.1601 13.122 59.5041 14.193 59.5671 15.957H53.6871C53.9181 13.836 55.5141 13.122 56.6901 13.122ZM66.5598 17.07C66.5598 14.466 67.8408 13.206 69.4788 13.206C71.1588 13.206 72.3348 14.718 72.3348 17.07C72.3348 19.485 71.1588 20.955 69.4788 20.955C67.8408 20.955 66.5598 19.674 66.5598 17.07ZM64.1658 7.49399V22.719H66.6648V21.228C67.3368 22.341 68.5128 22.992 70.0248 22.992C72.7128 22.992 74.9388 20.703 74.9388 17.07C74.9388 13.458 72.7128 11.169 70.0248 11.169C68.5128 11.169 67.3368 11.82 66.6648 12.933V7.49399H64.1658ZM81.7082 21.06C79.7342 21.06 78.7052 19.674 78.4742 17.994H76.0382C76.2062 20.682 78.1592 22.992 81.6662 22.992C84.7112 22.992 87.3782 21.48 87.3782 18.372C87.3782 16.818 86.5802 15.327 84.7532 14.655C86.0972 14.004 86.9792 12.744 86.9792 11.232C86.9792 8.37599 84.4592 7.22099 81.9182 7.22099C78.5582 7.22099 76.4582 9.13199 76.2272 12.03H78.6632C78.8942 10.245 79.9232 9.13199 81.7712 9.13199C83.1782 9.13199 84.4172 9.84599 84.4172 11.379C84.4172 12.954 83.2412 13.731 80.8892 13.731H80.2592V15.81H80.9942C83.2622 15.81 84.7952 16.482 84.7952 18.435C84.7952 20.094 83.4722 21.06 81.7082 21.06ZM91.8904 22.719V19.863H89.0344V22.719H91.8904ZM99.6776 16.167C101.127 16.44 102.807 16.944 102.807 18.519C102.807 19.989 101.358 20.808 99.5516 20.808C97.4516 20.808 96.1286 19.779 95.6456 17.679H93.0206C93.3566 21.039 95.7926 22.992 99.4256 22.992C102.429 22.992 105.474 21.438 105.474 18.351C105.474 15.306 102.933 14.298 100.266 13.794L98.3966 13.437C97.0736 13.185 96.1286 12.597 96.1286 11.421C96.1286 9.92999 97.8716 9.40499 99.0476 9.40499C100.56 9.40499 102.135 9.92999 102.576 11.757H105.159C104.55 8.58599 102.219 7.22099 99.1946 7.22099C96.4016 7.22099 93.4406 8.66999 93.4406 11.505C93.4406 14.088 95.4146 15.306 97.8296 15.81L99.6776 16.167ZM107.856 11.421H106.176V13.227H107.856V19.758C107.856 22.068 108.339 22.719 110.754 22.719H112.602V20.808H111.699C110.628 20.808 110.355 20.535 110.355 19.38V13.227H112.623V11.421H110.355V8.43899H107.856V11.421ZM116.463 17.091C116.463 14.487 117.849 13.206 119.445 13.206C121.041 13.206 122.427 14.487 122.427 17.091C122.427 19.695 121.041 20.955 119.445 20.955C117.849 20.955 116.463 19.695 116.463 17.091ZM119.445 11.169C116.694 11.169 113.88 13.017 113.88 17.091C113.88 21.186 116.694 22.992 119.445 22.992C122.196 22.992 125.01 21.186 125.01 17.091C125.01 13.017 122.196 11.169 119.445 11.169ZM133.237 11.442C133.048 11.421 132.775 11.4 132.586 11.4C131.221 11.421 130.129 12.177 129.52 13.437V11.421H127.063V22.719H129.562V16.797C129.562 14.529 130.465 13.899 132.04 13.899C132.418 13.899 132.817 13.92 133.237 13.962V11.442ZM141.398 18.267C141.398 20.199 140.306 21.123 138.458 21.123C137.198 21.123 136.379 20.535 136.379 19.548C136.379 18.267 137.828 17.742 141.398 17.406V18.267ZM137.912 22.992C139.592 22.992 140.894 22.425 141.629 21.186C141.692 21.963 141.755 22.236 141.839 22.719H144.128C143.897 21.774 143.792 20.283 143.792 18.855C143.792 17.826 143.834 16.482 143.834 15.936C143.897 12.324 141.776 11.085 139.067 11.085C136.337 11.085 134.426 12.681 134.258 14.97H136.715C136.778 13.605 137.723 12.933 138.983 12.933C140.243 12.933 141.335 13.521 141.335 15.453V15.663C137.219 16.104 133.733 16.776 133.733 19.611C133.733 21.669 135.455 22.992 137.912 22.992ZM153.858 12.933C153.186 11.82 152.01 11.169 150.498 11.169C147.81 11.169 145.584 13.311 145.584 16.839C145.584 20.367 147.81 22.53 150.498 22.53C152.01 22.53 153.186 21.879 153.858 20.766V22.089C153.858 22.824 153.711 23.517 153.291 24C152.871 24.504 152.157 24.819 151.044 24.819C149.532 24.819 148.86 24.399 148.629 23.328H146.151C146.55 25.806 148.503 26.793 150.981 26.793C152.745 26.793 154.089 26.415 154.992 25.575C155.895 24.735 156.357 23.412 156.357 21.585V11.421H153.858V12.933ZM153.963 16.839C153.963 19.38 152.661 20.556 151.044 20.556C149.364 20.556 148.188 19.17 148.188 16.839C148.188 14.571 149.364 13.164 151.044 13.164C152.661 13.164 153.963 14.319 153.963 16.839ZM169.364 17.784C169.595 14.004 167.411 11.169 163.946 11.169C160.733 11.169 158.402 13.584 158.402 16.986C158.402 20.241 160.481 22.992 164.114 22.992C167.012 22.992 168.734 21.144 169.238 19.338H166.781C166.34 20.409 165.332 20.913 164.009 20.913C162.581 20.913 161.111 19.884 160.943 17.784H169.364ZM163.946 13.122C165.416 13.122 166.76 14.193 166.823 15.957H160.943C161.174 13.836 162.77 13.122 163.946 13.122Z" fill="#03040A"/>
<g clip-path="url(#clip1_433_1827)">
<path fill-rule="evenodd" clip-rule="evenodd" d="M12.7244 29.1283C5.73547 29.1231 0.0739651 23.4533 0.0791051 16.4643C0.0842451 9.47534 5.75409 3.81383 12.743 3.81897C19.732 3.82411 25.3935 9.49395 25.3884 16.4829C25.373 23.4676 19.7091 29.1232 12.7244 29.1283V29.1283ZM12.7244 5.68132C6.76644 5.68646 1.93974 10.5187 1.94146 16.4767C1.94317 22.4347 6.77265 27.2642 12.7306 27.2659C18.6886 27.2676 23.5209 22.4409 23.526 16.4829C23.5158 10.5216 18.6857 5.69157 12.7244 5.68132Z" fill="#03040A"/>
<path d="M11.998 13.0371V15.393H13.4879V13.0371L15.434 14.1639L16.151 13.0371L14.1397 11.808L16.151 10.5788L15.434 9.45211L13.4879 10.5788V8.22296H11.998V10.5788L10.1356 9.45211L9.37207 10.5788L11.4207 11.808L9.37207 13.0371L10.0984 14.1639L11.998 13.0371Z" fill="#03040A"/>
<path d="M16.8219 20.3841V22.7307H18.2745V20.3841L20.202 21.5108L20.9284 20.3934L18.917 19.155L20.9284 17.9631L20.202 16.855L18.2652 17.9724V15.5699H16.8219V17.9538L14.8664 16.855L14.1494 17.9724L16.1607 19.2015L14.1494 20.44L14.8664 21.5108L16.8219 20.3841Z" fill="#03040A"/>
<path d="M7.63092 20.3841V22.7307H9.08355V20.3841L11.067 21.5108L11.784 20.3934L9.77262 19.155L11.7467 17.9631L11.067 16.8084L9.08355 17.9538V15.5699H7.63092V17.9538L5.69408 16.855L4.96777 17.9724L6.9791 19.1829L4.96777 20.4214L5.69409 21.5108L7.63092 20.3841Z" fill="#03040A"/>
</g>
</g>
<defs>
<clipPath id="clip0_433_1827">
<rect width="172" height="45.929" fill="white" transform="translate(0.0791016 0.718994)"/>
</clipPath>
<clipPath id="clip1_433_1827">
<rect width="25.3093" height="25.3093" fill="white" transform="translate(0.0791016 3.81897)"/>
</clipPath>
</defs>
</svg>
